<svg width="200" height="200" viewBox="0 0 200 200" fill="none" xmlns="http://www.w3.org/2000/svg">
<g filter="url(#filter0_d)">
<circle cx="100" cy="100" r="75" fill="#0F9D58"/>
</g>
<path d="M74 128.2C73.6667 128.2 73.3667 128.1 73.1 127.9C72.8333 127.633 72.7 127.333 72.7 127C72.7 125.933 73.4667 124.133 75 121.6C75.8667 120.133 76.3 119.2 76.3 118.8C76.9667 115.933 78.5 111.133 80.9 104.4C81.1667 103.667 81.4333 102.9 81.7 102.1C81.9667 101.233 82.2667 100.333 82.6 99.4C82.8 98.7333 83.0333 97.7333 83.3 96.4C83.5 95.4 83.8 94.2667 84.2 93C84.4667 92.2 84.7333 91.5333 85 91C86.2667 88 88.7667 80.8 92.5 69.4C92.6333 69.1333 92.9 68.4667 93.3 67.4C93.7 66.2667 93.9333 65.2 94 64.2C94.3333 64.3333 95.1 64.4333 96.3 64.5C97.5667 64.5667 98.4333 64.6 98.9 64.6C101.433 64.6667 103.4 64.7667 104.8 64.9C106.2 65.0333 107 65.3333 107.2 65.8C107.2 67.1333 107.633 69.0667 108.5 71.6C109.367 74.1333 109.8 75.4667 109.8 75.6C110.667 80.4667 111.633 84.3333 112.7 87.2C113.833 90.0667 115.4 93.3333 117.4 97C119.4 103.333 121.9 109.767 124.9 116.3C125.1 117.3 125.633 118.733 126.5 120.6C127.633 123 128.4 124.933 128.8 126.4C128.467 126.933 127.533 127.267 126 127.4C124.467 127.533 122.067 127.6 118.8 127.6C117.6 127.6 116.6 127.533 115.8 127.4C115 127.2 114.467 126.8 114.2 126.2C113.6 125 112.7 123.4 111.5 121.4C109.9 118.467 108.833 116.4 108.3 115.2C106.167 115.133 103.733 114.967 101 114.7C99.0667 114.5 97.6667 114.4 96.8 114.4C94.8667 114.4 93.4 114.567 92.4 114.9C91.4667 115.233 90.8 115.7 90.4 116.3C90 116.9 89.6 117.833 89.2 119.1C89 119.9 88.6333 120.967 88.1 122.3C87.3 124.033 86.4333 125.633 85.5 127.1C84.5667 128.567 83.8667 129.3 83.4 129.3C80.9333 128.567 77.8 128.2 74 128.2ZM95.4 66C95.4 66.6667 95.1667 67.4 94.7 68.2C94.6333 68.4 94.5 68.7333 94.3 69.2C94.1 69.6667 94 70.1333 94 70.6C94.8667 70.0667 96.2333 68.8667 98.1 67L98.4 67.3C98.5333 67.3 98.7 67.2 98.9 67C98.3667 66.8667 97.8333 66.6667 97.3 66.4C96.7667 66.1333 96.1333 66 95.4 66ZM98.9 109.1C100.967 107.767 102.5 106.767 103.5 106.1C104.5 105.367 105 104.9 105 104.7C105 104.633 104.867 104.533 104.6 104.4V103.3C104.067 103.3 103.467 103.567 102.8 104.1C102.2 104.633 101.833 104.933 101.7 105C101.567 105.067 101.2 105.333 100.6 105.8C100.067 106.267 99.6 106.5 99.2 106.5L102.3 103.3C102.1 103.3 101.4 103.7 100.2 104.5C99.9333 104.7 99.4333 105.033 98.7 105.5C97.9667 105.9 97.4 106.1 97 106.1C96.6667 106.433 96 107.033 95 107.9C94.0667 108.7 93.3667 109.167 92.9 109.3C92.7667 109.233 92.6333 109.167 92.5 109.1C92.3667 108.967 92.2333 108.867 92.1 108.8C92.1 108.6 92.7333 107.9 94 106.7C95.2667 105.5 96.0667 104.9 96.4 104.9C96.4667 104.9 96.5333 104.967 96.6 105.1C96.7333 105.167 96.8 105.233 96.8 105.3C96.8667 105.233 97.1667 104.833 97.7 104.1C98.2333 103.3 98.8667 102.633 99.6 102.1C99.4 102.033 98.8333 102 97.9 102C96.9 102 95.7667 102.533 94.5 103.6C93.2333 104.667 92.4 105.533 92 106.2C91.8 105.933 91.6667 105.8 91.6 105.8C91.4 105.8 91.2 106.033 91 106.5C90.8 106.967 90.4667 107.3 90 107.5C89.8667 107.233 89.7333 106.9 89.6 106.5C89.5333 106.1 89.5 105.833 89.5 105.7C89.5 105.433 89.7333 105.067 90.2 104.6C90.7333 104.067 91.0667 103.733 91.2 103.6C92.2 102.733 92.8 102.067 93 101.6L92.9 101.3L95.3 100.2H104.7L102.3 94.2C102.367 94 102.067 93.0667 101.4 91.4C100.733 89.7333 100.267 88.8333 100 88.7C99.9333 88.8333 99.7 89.3 99.3 90.1C98.9 90.8333 98.5 91.2 98.1 91.2C98.1 92.4 97.8 93.7 97.2 95.1C96.6667 96.5 96.0333 97.7 95.3 98.7C94.5667 99.7 93.9667 100.2 93.5 100.2C93.3667 100.133 93.1667 100.033 92.9 99.9C92.6333 99.7 92.5 99.5333 92.5 99.4C92.5 98.9333 92.9667 97.7667 93.9 95.9C94.8333 94.3 95.3 93.2333 95.3 92.7L93.3 93.5L93.2 93.2C93.2 92.8667 93.4333 92.6 93.9 92.4C94.3667 92.1333 94.8333 91.9667 95.3 91.9C95.7 91.5 96.1 90.9667 96.5 90.3C96.9667 89.6333 97.3333 89.1 97.6 88.7C97.8 88.5 98.2 87.7667 98.8 86.5C99.4667 85.1667 99.9333 84.4333 100.2 84.3C100.267 84.3667 100.4 84.5 100.6 84.7C100.867 84.8333 101.067 85 101.2 85.2C101.267 85.2667 101.433 85.7333 101.7 86.6C101.967 87.4667 102.167 87.9 102.3 87.9H103C103 88.0333 102.967 88.2 102.9 88.4C102.833 88.6 102.8 88.8333 102.8 89.1C102.8 89.4333 102.967 89.6 103.3 89.6L103.6 89.5C104.067 88.7 105.1 87.8 106.7 86.8C107.367 86.3333 107.867 85.9667 108.2 85.7C108.533 85.3667 108.7 85.0333 108.7 84.7L108.3 83.9C108.233 84.5667 107.567 85.2667 106.3 86C105.033 86.7333 104.033 87.1 103.3 87.1C102.833 87.1 102.6 86.9333 102.6 86.6C102.6 86.2667 102.933 85.6 103.6 84.6C104.267 83.6 104.633 83 104.7 82.8C105.633 82.2 106.833 81.1667 108.3 79.7C108.233 79.6333 108.2 79.5333 108.2 79.4C108.2 79.2667 108.233 79.1 108.3 78.9C108.367 78.7 108.4 78.5 108.4 78.3C107.933 78.3 107.367 78.5333 106.7 79C106.033 79.4667 105.5 79.7 105.1 79.7C105.367 79.3667 105.767 79 106.3 78.6C106.9 78.1333 107.333 77.7333 107.6 77.4C107.867 77.0667 108 76.6333 108 76.1C108 75.7667 107.633 74.4667 106.9 72.2C106.167 69.8667 105.567 68.1333 105.1 67C105.033 67.0667 104.933 67.1 104.8 67.1C104.6 67.1 104.067 67 103.2 66.8C102.4 66.6 101.867 66.5 101.6 66.5C100.533 66.5 100 66.5333 100 66.6L98.1 68.6C97.6333 69.2667 96.8667 70 95.8 70.8C94.4 72.0667 93.4333 73.0333 92.9 73.7C93.2333 73.7 94.7 72.7667 97.3 70.9L99.6 69.4C100.2 69 100.833 68.6 101.5 68.2C102.233 67.7333 102.767 67.4333 103.1 67.3H103.9C103.7 67.7 103.2 68.1333 102.4 68.6C101.6 69 101.067 69.3667 100.8 69.7L103.9 68.1C103.967 68.1667 104 68.3333 104 68.6C104 68.9333 103.867 69.1667 103.6 69.3C103.333 69.3667 103.067 69.5 102.8 69.7C102.867 69.6333 101.533 70.8667 98.8 73.4C96.8667 75.2667 95.4333 76.6 94.5 77.4C93.5667 78.1333 92.6333 78.6 91.7 78.8L92.1 78L91.4 78.4C91.2667 78.4 91.1333 78.3667 91 78.3C90.9333 78.2333 90.9 78.1667 90.9 78.1C90.7 78.5 90.6 78.8667 90.6 79.2C90.2 79.6 89.9333 80.1333 89.8 80.8C89.6667 81.4 89.5667 82.2333 89.5 83.3C89.5 84.7 89.3333 85.8333 89 86.7C89.1333 86.5667 89.4667 86.3 90 85.9C90.5333 85.5 91.0667 85.3 91.6 85.3C91.8667 85.3 92.2333 85 92.7 84.4C93.2333 83.7333 93.7667 83.1333 94.3 82.6C94.8333 82.0667 95.4333 81.7333 96.1 81.6V82.5C95.7667 82.5 95.5 82.6667 95.3 83C95.1 83.3333 94.8333 83.5333 94.5 83.6C94.5 83.6667 94.5333 83.7333 94.6 83.8C94.7333 83.8667 94.8 83.9 94.8 83.9C95.3333 83.9 95.8 83.7667 96.2 83.5C96.6 83.1667 96.9333 82.9333 97.2 82.8L97.3 83.2C97.2333 83.3333 96.7 83.7 95.7 84.3C94.7 84.9 94.0333 85.3 93.7 85.5C93.3667 85.7667 92.9667 86.0333 92.5 86.3C92.0333 86.5 91.7 86.6667 91.5 86.8C90.3667 87.2667 89.6333 87.6333 89.3 87.9C88.7667 88.3 88.2333 89.0667 87.7 90.2C87.1667 91.3333 86.7 92.4333 86.3 93.5C85.9667 94.5667 85.7667 95.2667 85.7 95.6C86.2333 95.6 86.7 95.3667 87.1 94.9C87.5667 94.4333 87.9333 93.9333 88.2 93.4C88.5333 92.8667 88.7667 92.5 88.9 92.3H88.5C88.1 92.3 87.8667 92.1667 87.8 91.9C87.9333 91.9 88.2 91.6333 88.6 91.1C89.0667 90.5 89.4667 90.2 89.8 90.2C89.9333 90.2 90.0333 90.2333 90.1 90.3L91.4 88.7C91.4667 88.7 91.6 88.7667 91.8 88.9C92 88.9667 92.1 89.1333 92.1 89.4C92.0333 89.5333 91.8333 89.7667 91.5 90.1C91.1667 90.3667 90.9667 90.5667 90.9 90.7C90.5667 91.0333 90.1333 91.7333 89.6 92.8C89.4667 93 89.1333 93.5333 88.6 94.4C88.1333 95.2 87.7 95.8333 87.3 96.3C86.9 96.7667 86.5333 97 86.2 97H85.4L84.2 99.4C84.9333 99.4 85.9 98.8 87.1 97.6C87.8333 96.9333 88.4667 96.4333 89 96.1C89.6 95.7 90.2333 95.5 90.9 95.5L89.3 97L92.2 95.5V95.9L93 95.1C93.3333 95.4333 93.5 95.6333 93.5 95.7C93.5 95.9667 92.9333 96.5667 91.8 97.5C90.7333 98.3667 89.5667 99.2667 88.3 100.2C87.1667 101.067 86.1 101.9 85.1 102.7C84.1667 103.433 83.7 103.9 83.7 104.1H84.1C84.1 104.5 83.7333 104.967 83 105.5C82.3333 105.967 81.9333 106.3 81.8 106.5C81.3333 107.1 80.9 108.167 80.5 109.7C80.1 111.167 79.9 112.433 79.9 113.5L82.6 111.6C83.1333 111.8 83.8 111.9 84.6 111.9V112.8C83 112.8 81.5333 113.167 80.2 113.9C78.8667 114.567 78.2 115.633 78.2 117.1C78.6667 116.9 79.4 116.3 80.4 115.3C80.9333 114.767 81.4667 114.3 82 113.9C82.6 113.433 83.1333 113.2 83.6 113.2C84.3333 113.2 84.7 113.467 84.7 114L84.6 114.4L84.2 114C83.9333 114.067 83.5333 114.233 83 114.5C82.5333 114.7 82.3 114.9 82.3 115.1C82.3 115.1 82.3333 115.133 82.4 115.2C82.4667 115.2 82.5667 115.2 82.7 115.2C83.1 115.2 83.4667 115.033 83.8 114.7V115.2C82.5333 115.667 81.1667 116.4 79.7 117.4C78.2333 118.333 77.5 119.233 77.5 120.1C77.5667 120.233 77.6667 120.4 77.8 120.6C78 120.8 78.1333 120.933 78.2 121C78.6 120.867 78.8 120.6 78.8 120.2H78.2C78.4 120.067 78.6333 119.867 78.9 119.6C79.2333 119.267 79.4667 119.1 79.6 119.1C79.9333 119.1 80.1667 119.467 80.3 120.2V120.7C80.1 120.9 79.5333 121.3 78.6 121.9C77.7333 122.433 77 123.067 76.4 123.8C75.8 124.467 75.5 125.133 75.5 125.8C75.5 126.267 76.0667 126.6 77.2 126.8C78.3333 127 79.5667 127.1 80.9 127.1L83.4 127C85 123.333 86.5 120.3 87.9 117.9L86.5 118.7L86.2 118.6C86.0667 118.667 85.9 118.833 85.7 119.1C85.5667 119.367 85.4333 119.633 85.3 119.9C85.3 119.233 85.5667 118.533 86.1 117.8C86.6333 117 87.2333 116.6 87.9 116.6L88.5 116.8C89.2333 115.6 89.9 114.8 90.5 114.4C90.2333 114.333 89.9667 114.2 89.7 114C89.4333 113.8 89.3 113.6 89.3 113.4C89.3 113.2 90.0667 112.667 91.6 111.8C91.8667 111.667 92.4 111.367 93.2 110.9C94 110.367 94.4333 109.967 94.5 109.7C94.7 109.967 95.2667 110.1 96.2 110.1C93.6667 111.433 92.4 112.167 92.4 112.3C92.4 112.9 92.5667 113.2 92.9 113.2H96.5C96.5 112.867 96.3667 112.6 96.1 112.4L96.8 112.3C97.1333 112.3 97.5667 112.367 98.1 112.5C98.7 112.633 99.1667 112.7 99.5 112.7C99.7667 112.7 100.033 112.367 100.3 111.7C100.633 111.033 100.933 110.467 101.2 110C101.467 109.533 101.833 109.3 102.3 109.3C102.1 109.9 101.867 110.267 101.6 110.4L102 110.5C102.4 110.5 102.767 110.367 103.1 110.1C103.5 109.767 103.767 109.567 103.9 109.5C103.967 109.433 104.233 109.233 104.7 108.9C105.167 108.567 105.7 108.4 106.3 108.4L106.6 108.5C106.267 108.633 105.3 109.4 103.7 110.8C102.167 112.133 101.333 112.933 101.2 113.2L102.8 113.3C103.6 113.3 104.267 113.067 104.8 112.6C105.4 112.133 106.033 111.467 106.7 110.6C107.567 109.333 108.4 108.5 109.2 108.1C109.2 108.5 109 109.1 108.6 109.9C108.267 110.633 107.967 111.167 107.7 111.5C108.233 111.233 109.3 110.3 110.9 108.7C112.1 107.5 112.767 106.9 112.9 106.9C112.967 106.9 113.1 106.933 113.3 107C113.567 107 114.033 107 114.7 107C115.5 107 116.133 106.967 116.6 106.9C116.6 106.967 116.067 107.367 115 108.1C114 108.767 113.367 109.2 113.1 109.4C112.9 109.4 112.6 109.1 112.2 108.5L112.3 108.9C112.3 109.567 111.333 110.433 109.4 111.5C107.533 112.5 106.5 113.067 106.3 113.2C106.567 113.2 106.833 113.233 107.1 113.3C107.367 113.367 107.667 113.4 108 113.4C108.733 113.4 109.233 113.067 109.5 112.4C109.567 112.667 109.833 112.8 110.3 112.8C110.633 112.8 111.1 112.6 111.7 112.2C112.3 111.8 112.733 111.6 113 111.6C112.933 111.8 112.5 112.3 111.7 113.1C110.967 113.833 110.6 114.3 110.6 114.5C110.6 114.9 110.733 115.167 111 115.3C111.333 115.433 111.5 115.5 111.5 115.5C111.7 115.5 111.9 115.467 112.1 115.4C112.3 115.333 112.467 115.267 112.6 115.2C112.6 116.467 112.367 117.233 111.9 117.5C111.967 117.7 112.067 117.933 112.2 118.2C112.333 118.4 112.467 118.567 112.6 118.7C112.8 118.633 113.033 118.533 113.3 118.4C113.633 118.2 113.8 118.033 113.8 117.9L114.2 118.3L113.8 118.7C114.067 118.767 114.267 119.467 114.4 120.8C115.533 119.933 117.2 118.967 119.4 117.9C119.467 117.9 119.533 117.967 119.6 118.1C119.733 118.167 119.8 118.233 119.8 118.3C119.8 118.833 119 119.5 117.4 120.3C115.867 121.1 114.933 121.567 114.6 121.7C114.733 122.167 114.867 122.467 115 122.6C115.267 122.6 115.567 122.567 115.9 122.5C116.233 122.367 116.567 122.3 116.9 122.3L115.4 123.5C115.333 123.5 115.233 123.533 115.1 123.6C115.033 123.667 115 123.733 115 123.8L115.5 124.5C116.167 124.1 116.933 123.7 117.8 123.3C118.667 122.9 119.233 122.7 119.5 122.7C119.833 122.7 120.367 122.833 121.1 123.1C121.833 123.3 122.433 123.4 122.9 123.4C122.767 123.667 120.367 124.133 115.7 124.8C115.967 125.2 116.233 125.4 116.5 125.4C117.833 125.133 118.8 125 119.4 125C119.733 125 120.333 125.133 121.2 125.4C122.067 125.6 123.8 125.733 126.4 125.8L126.9 125.4C126.167 125 125.733 124.033 125.6 122.5C125.467 121.567 125.267 120.867 125 120.4C124.8 119.933 124.4 119.7 123.8 119.7C123.4 119.7 123.167 119.933 123.1 120.4C123.1 120.8 123.033 121.133 122.9 121.4C122.833 121.667 122.6 121.8 122.2 121.8C119.733 121.8 118.467 121.767 118.4 121.7C119 121.367 119.667 121 120.4 120.6C121.2 120.2 121.733 119.9 122 119.7C122.333 119.5 122.5 119.333 122.5 119.2C122.5 118.933 122.7 118.667 123.1 118.4C123.567 118.133 123.8 117.533 123.8 116.6C122.667 117.333 121.867 117.733 121.4 117.8C121.6 117.467 121.833 117.033 122.1 116.5C122.367 115.967 122.5 115.333 122.5 114.6C122.5 113.867 121.733 112.167 120.2 109.5C119.267 107.9 118.733 106.9 118.6 106.5L117.6 103.8C116.133 100.133 115.4 97.8667 115.4 97H115L112.8 99.4C112.067 99.6667 111.6 100.033 111.4 100.5H112.2V101.1C109.933 102.967 106.8 105.2 102.8 107.8L98.9 109.1ZM100 70.1C99.0667 70.4333 98.3 70.8333 97.7 71.3C97.1667 71.7 96.7333 72 96.4 72.2C95.3333 72.7333 94.2667 73.4333 93.2 74.3C92.1333 75.1667 91.6 76.0333 91.6 76.9L91.7 77.2C91.8333 77.1333 92.3 76.8 93.1 76.2C93.9667 75.6 94.6333 75.3 95.1 75.3C95.3667 75.3 95.6333 75 95.9 74.4C96.2333 73.8 96.5667 73.5 96.9 73.5C96.9667 73.5 97.2 73.5667 97.6 73.7L100.4 70.9L100 70.1ZM91.2 81.8C92 80.9333 93 80.1 94.2 79.3C95.4 78.4333 96.9667 77.4 98.9 76.2C101.5 74.6667 102.8 73.7 102.8 73.3V72.9H101.9C101.9 72.5 102.2 72.1 102.8 71.7L103.1 72.2C103.5 72 103.933 71.8333 104.4 71.7C104.867 71.5 105.233 71.3667 105.5 71.3V71.7C105.433 72.0333 104.9 72.6333 103.9 73.5C102.9 74.3 101.833 75.1 100.7 75.9C100.367 76.1 99.5 76.7 98.1 77.7L96.4 79.2C93.6 82 91.7333 83.4 90.8 83.4C90.8 83.2 90.8667 82.9333 91 82.6C91.1333 82.2667 91.2 82 91.2 81.8ZM105.5 76.1C105.433 75.7667 104.9 75.6 103.9 75.6C103.9 75.0667 104.133 74.7667 104.6 74.7C105.133 74.6333 105.533 74.5667 105.8 74.5C106.133 74.4333 106.3 74.1667 106.3 73.7C106.367 73.7667 106.433 73.9 106.5 74.1C106.633 74.2333 106.7 74.3667 106.7 74.5C106.7 74.7 106.533 75 106.2 75.4C105.933 75.7333 105.7 75.9667 105.5 76.1ZM105.6 76.6C105.733 76.6 105.833 76.6333 105.9 76.7C106.033 76.7667 106.133 76.8333 106.2 76.9C105.333 77.3667 103.9 78.1333 101.9 79.2C99.9667 80.2 98.4667 80.9333 97.4 81.4L100.2 78.3L102.2 77C102.2 77.4667 102.433 77.7 102.9 77.7C103.233 77.7 103.733 77.5333 104.4 77.2C105.067 76.8 105.467 76.6 105.6 76.6ZM109.1 80C108.767 80.3333 108.2 80.8667 107.4 81.6C106.667 82.3333 106.033 83.0333 105.5 83.7C104.967 84.3667 104.7 84.9667 104.7 85.5C104.9 85.4333 105.433 85.1 106.3 84.5C107.167 83.9 108.3 83.3333 109.7 82.8C109.567 82.7333 109.433 82.4 109.3 81.8C109.167 81.2 109.1 80.6 109.1 80ZM102.7 81.5C102.167 81.9 101.367 82.5667 100.3 83.5C99.3 84.3667 98.5667 85.0333 98.1 85.5C97.8333 85.7 97.2 86.1667 96.2 86.9C95.2667 87.5667 94.4 88 93.6 88.2C93.6 87.9333 94.1667 87.2667 95.3 86.2C96.4333 85.0667 97.7 84.0333 99.1 83.1C100.5 82.1667 101.7 81.6333 102.7 81.5ZM103.4 90.5C103.4 91.1667 103.533 91.8 103.8 92.4C104.133 93 104.567 93.4667 105.1 93.8C105.233 93.6 106.167 92.7667 107.9 91.3C108.433 90.7667 109.1 90.1667 109.9 89.5C110.7 88.7667 111.1 88.3667 111.1 88.3C111.1 88.1667 111 88.1 110.8 88.1C110.6 88.1 110.3 88.1667 109.9 88.3C109.5 88.3667 109.1 88.5 108.7 88.7C108.7 88.1 108.833 87.7333 109.1 87.6C109.367 87.4667 109.9 87.4 110.7 87.4C110.7 86.4 110.567 85.5 110.3 84.7C109.767 85.3667 108.967 86.0333 107.9 86.7C106.833 87.3667 106.033 88.0333 105.5 88.7C105.833 88.7 106.233 88.6333 106.7 88.5C107.233 88.3667 107.633 88.3 107.9 88.3V89.1C107.7 89.3 107.3 89.4333 106.7 89.5C106.1 89.5 105.6 89.5333 105.2 89.6C104.8 89.6667 104.6 89.8667 104.6 90.2C104.6 90.2667 104.667 90.4 104.8 90.6C105 90.8 105.1 90.9667 105.1 91.1C105.1 91.5667 105.033 91.8 104.9 91.8C104.767 91.8 104.533 91.6333 104.2 91.3C103.867 90.9667 103.6 90.7 103.4 90.5ZM105.7 95.9C105.7 96.3667 105.9 96.7667 106.3 97.1C106.7 97.4333 106.9 97.7667 106.9 98.1L106.7 98.9C107.567 98.7667 109.033 98.1667 111.1 97.1C113.233 96.0333 114.3 95.2 114.3 94.6C114.3 94.0667 114.1 93.8 113.7 93.8C113.3 93.8 112.867 94.0333 112.4 94.5C111.933 94.9667 111.667 95.2333 111.6 95.3C110.4 96.6333 109.3 97.4667 108.3 97.8L108.1 97.5C108.1 97.2333 108.9 96.4 110.5 95C112.1 93.6 113.1 92.9 113.5 92.9C113.5 92.5 113.233 92.3 112.7 92.3C112.167 92.2333 111.9 92.1667 111.9 92.1C111.9 92.0333 112 91.9 112.2 91.7C112.4 91.5 112.6 91.2 112.8 90.8C112.8 90.4667 112.633 90.1 112.3 89.7C112.033 89.2333 111.8 89 111.6 89C111.133 89 110.1 89.8 108.5 91.4C106.967 92.9333 106.1 94 105.9 94.6C106.3 94.4667 106.9 94.2667 107.7 94C108.5 93.6667 109.1 93.5 109.5 93.5V93.9C109.167 94.0333 108.533 94.3667 107.6 94.9C106.733 95.4333 106.1 95.7667 105.7 95.9ZM94.4 90.8C94.4667 90.8 94.5333 90.8667 94.6 91C94.7333 91.0667 94.8 91.1 94.8 91.1C92 93.2333 90.2667 94.3 89.6 94.3C89.6 93.9667 90.3 93.3 91.7 92.3C93.1667 91.3 94.0667 90.8 94.4 90.8ZM113.8 96.6C113.467 96.7333 112.533 97.1333 111 97.8C109.467 98.4 108.233 99.1333 107.3 100C106.367 100.867 105.9 101.833 105.9 102.9C107.767 102.433 109.333 101.367 110.6 99.7H111.1C111.3 99.7 111.8 99.2333 112.6 98.3C113.4 97.3667 113.8 96.8 113.8 96.6ZM89.8 97.8C88.4667 98.3333 87.0667 99.1 85.6 100.1C84.1333 101.033 83.4 101.7 83.4 102.1V102.5C83.8 102.367 84.6333 101.9 85.9 101.1C87.2333 100.233 88.1333 99.6667 88.6 99.4L89.8 97.8ZM81.8 108.6C81.8667 108.533 82.3 108.067 83.1 107.2C83.9667 106.267 85.6333 104.567 88.1 102.1L88.5 102.3C88.7 102.3 88.9 102.1 89.1 101.7C89.3 101.3 89.5333 101.1 89.8 101.1C89.8 101.567 89.6667 101.967 89.4 102.3C89.1333 102.567 88.7 102.933 88.1 103.4C87.9667 103.533 87.6667 103.767 87.2 104.1C86.8 104.433 86.5667 104.833 86.5 105.3C85.6333 106.167 84.8667 106.8 84.2 107.2C84.8667 107 85.6667 106.633 86.6 106.1C87.6 105.5 88.2667 104.933 88.6 104.4C88.6 105 88.2667 105.533 87.6 106C86.9333 106.467 86 107.033 84.8 107.7C84.6667 107.767 84.2667 108 83.6 108.4C82.9333 108.8 82.6 109.133 82.6 109.4C82.4 109.4 82.2 109.3 82 109.1C81.8667 108.9 81.8 108.733 81.8 108.6ZM114 101.8C113.867 102.067 113.333 102.5 112.4 103.1C111.533 103.633 110.967 103.9 110.7 103.9L110.4 103.8C111.267 102.467 112.333 101.8 113.6 101.8H114ZM109.8 106.1C110.133 105.9 110.7 105.467 111.5 104.8C111.633 104.667 112.1 104.3 112.9 103.7C113.767 103.033 114.6 102.633 115.4 102.5C115.333 102.7 114.567 103.433 113.1 104.7C111.7 105.9 110.867 106.5 110.6 106.5H109.8V106.1ZM114.2 105.3C115 104.7 115.933 104.4 117 104.4C116.267 105.533 115.6 106.1 115 106.1C114.467 106.1 114.2 105.833 114.2 105.3ZM114.6 110.4C114.6 109.933 115.033 109.3 115.9 108.5C116.767 107.633 117.333 107.2 117.6 107.2C117.8 107.267 117.967 107.367 118.1 107.5C118.3 107.567 118.467 107.633 118.6 107.7C118.4 107.833 117.6 108.467 116.2 109.6C114.867 110.667 114.067 111.2 113.8 111.2C113.733 111.2 113.633 111.167 113.5 111.1C113.433 111.033 113.4 110.933 113.4 110.8L114.2 110L114.6 110.4ZM86.2 109.6C86.4667 109.533 86.9 109.467 87.5 109.4C88.1 109.267 88.6 108.967 89 108.5L89.2 108.9C89.2 109.367 88.7 109.867 87.7 110.4C86.7 110.933 85.9667 111.233 85.5 111.3C85.3667 111.233 85.2 111.167 85 111.1C84.8667 110.967 84.7333 110.867 84.6 110.8C84.4667 110.8 84.2667 110.867 84 111C83.8 111.133 83.6 111.2 83.4 111.2C84.2667 110.067 85.3 109.267 86.5 108.8L86.2 109.6ZM117.8 110C117.4 110.533 116.7 111.133 115.7 111.8C114.767 112.467 114 112.8 113.4 112.8L113 112.7C113 112.7 113.033 112.667 113.1 112.6C113.233 112.467 113.333 112.4 113.4 112.4C113.933 112.067 114.633 111.667 115.5 111.2C116.433 110.667 117.2 110.267 117.8 110ZM118.9 110.4C118.9 110.867 118.633 111.333 118.1 111.8C117.633 112.267 117.1 112.7 116.5 113.1C115.967 113.5 115.6 113.8 115.4 114L114.6 113.7C114.6 114.167 114.533 114.467 114.4 114.6C114.333 114.733 114.067 114.8 113.6 114.8C113.6 114.133 114.267 113.3 115.6 112.3C116.933 111.3 118.033 110.667 118.9 110.4ZM88.1 111.6C88.3 111.867 88.6 112 89 112C89 112.267 88.4667 112.833 87.4 113.7C86.3333 114.567 85.5333 115.167 85 115.5C85.2 115.033 85.7 114.467 86.5 113.8C87.4333 113 87.9667 112.267 88.1 111.6ZM118.6 113.5C116.8 114.967 114.933 115.9 113 116.3C113 116.167 113.967 115.6 115.9 114.6C117.833 113.533 119.267 112.8 120.2 112.4C120.4 112.6 120.5 112.967 120.5 113.5C120.033 114.1 119.333 114.767 118.4 115.5C117.467 116.167 116.867 116.6 116.6 116.8L116.5 116.5C116.567 116.367 116.733 116.133 117 115.8C117.333 115.4 117.6 115.033 117.8 114.7C117.867 114.7 117.967 114.767 118.1 114.9C118.3 114.967 118.467 115.033 118.6 115.1V113.5ZM121.2 115.5C121.2 115.9 120.933 116.267 120.4 116.6C119.867 116.933 119.367 117.133 118.9 117.2V116.8C118.9 116.733 119.2 116.533 119.8 116.2C120.4 115.8 120.867 115.567 121.2 115.5ZM84.2 116C84.0667 116.267 83.7667 116.567 83.3 116.9C82.9 117.167 82.6 117.4 82.4 117.6L81.7 117.5C81.9 117.167 82.2667 116.867 82.8 116.6C83.3333 116.267 83.8 116.067 84.2 116ZM85.5 117.2C85.5 117.2 85.2667 117.567 84.8 118.3C84.5333 119.567 83.9333 120.433 83 120.9C82.0667 121.367 81.5667 121.633 81.5 121.7C81.4333 121.7 81.3333 121.633 81.2 121.5C81.0667 121.367 80.9667 121.267 80.9 121.2C80.9 120.6 81.4667 119.833 82.6 118.9C83.7333 117.967 84.7 117.4 85.5 117.2ZM77.9 125.6C77.9 125.067 78.2667 124.467 79 123.8C79.7333 123.067 80.4 122.567 81 122.3C80.9333 122.833 80.6 123.633 80 124.7C79.4667 125.7 78.9667 126.2 78.5 126.2C78.1 126.2 77.9 126 77.9 125.6Z" fill="white"/>
<defs>
<filter id="filter0_d" x="21" y="25" width="158" height="158" filterUnits="userSpaceOnUse" color-interpolation-filters="sRGB">
<feFlood flood-opacity="0" result="BackgroundImageFix"/>
<feColorMatrix in="SourceAlpha" type="matrix" values="0 0 0 0 0 0 0 0 0 0 0 0 0 0 0 0 0 0 127 0"/>
<feOffset dy="4"/>
<feGaussianBlur stdDeviation="2"/>
<feColorMatrix type="matrix" values="0 0 0 0 0 0 0 0 0 0 0 0 0 0 0 0 0 0 0.25 0"/>
<feBlend mode="normal" in2="BackgroundImageFix" result="effect1_dropShadow"/>
<feBlend mode="normal" in="SourceGraphic" in2="effect1_dropShadow" result="shape"/>
</filter>
</defs>
</svg>
