<svg xmlns="http://www.w3.org/2000/svg" viewBox="0 0 166.199 158.584"><defs><style>.a{fill:#006bb1;}.b{fill:#fff;}.c{fill:#e23222;}</style></defs><g transform="translate(0.2 0.18)"><path class="a" d="M123.247,100.717c1.019-.1,2.038-.191,3.057-.3,1.8-.175,3.583-.366,5.382-.541.1-.016.271-.032.3.016.334.494.8.191,1.178.143,3.184-.382,6.385-.8,9.569-1.178.669-.08,1.337-.1,2.006-.191.334-.048.366.159.43.366.525,1.592,1.067,3.2,1.592,4.793.048.143.111.271.207.525.191-.382.35-.669.462-.955.685-1.688,1.369-3.376,2.022-5.079a.569.569,0,0,1,.589-.446c2.675-.159,5.35-.366,8.025-.494,2.452-.111,4.92-.143,7.372-.207.159,0,.334.016.557.032-.239.7-.446,1.337-.685,1.958q-6.759,17.984-13.518,35.953c-.987,2.611-1.99,5.207-2.977,7.8a.632.632,0,0,1-.621.478c-3.36.318-6.7.669-10.063,1-2.866.287-5.748.557-8.614.828a2.673,2.673,0,0,1-.462-.032c.414-.971.812-1.911,1.21-2.834q3.415-7.929,6.8-15.875a1.1,1.1,0,0,0,.016-.78c-1.337-3.344-2.707-6.687-4.076-10.031a.813.813,0,0,0-.271-.366c0,.462-.016.939,0,1.4.016.366-.127.494-.478.462-.828-.08-1.656-.1-2.468-.191-.462-.048-.621.064-.573.541.191,1.783.366,3.551.557,5.334.271,2.532.525,5.063.8,7.595.08.7.143,1.385.223,2.134-.908.048-1.751.1-2.579.127-3.5.143-7.006.3-10.509.43-.35.016-.462.127-.478.478-.048,2.309-.127,4.6-.207,6.91-.064,1.863-.127,3.71-.175,5.573-.016.318-.127.43-.414.446-2.532.239-5.063.494-7.6.732-2.659.255-5.3.525-7.961.8-.908.1-1.8.159-2.755.255v-1.067a2.794,2.794,0,0,0-.478.1q-4.9,1.337-9.792,2.691a.692.692,0,0,1-.844-.239c-1.513-1.895-3.041-3.774-4.554-5.668-.08-.1-.159-.191-.334-.382-.032.271-.064.43-.08.589-.127,1.751-.287,3.5-.382,5.238-.032.525-.4.446-.685.478-1.672.175-3.36.334-5.031.494-3.376.334-6.735.669-10.111.987a4.421,4.421,0,0,1-.462,0c.1-1.592.207-3.169.3-4.745-.048-.016-.111-.016-.159-.032-.048.143-.1.3-.143.446-.525,1.656-1.067,3.3-1.592,4.952a.592.592,0,0,1-.669.478c-2.643.032-5.3,0-7.945.159-3.5.207-6.99.525-10.477.86-2.277.223-4.538.653-6.815.78-.86.048-1.751-.016-2.627.064-2.834.287-5.668.589-8.519.876-1.258.127-2.516.271-3.853.414.382-4.681.78-9.3,1.162-14.012-.669.08-1.226.159-1.767.239-1.178.159-2.341.35-3.519.51a.528.528,0,0,0-.525.557c-.143,2.038-.318,4.076-.494,6.114-.207,2.4-.414,4.793-.605,7.2-.032.35-.223.43-.494.446-1.72.143-3.423.287-5.143.446-2.739.255-5.477.525-8.216.78-1.146.111-2.293.223-3.471.334.048-.892.1-1.736.159-2.6.111-1.624.255-3.248.366-4.888.207-3.184.446-6.385.605-9.569.159-3.328.271-6.672.35-10,.127-5.047.191-10.111.3-15.158.016-.812.1-1.608.127-2.42.016-.366.159-.494.541-.525,4.92-.462,9.856-.939,14.776-1.417.621-.064,1.226-.127,1.847-.207.605-.08.653-.048.653.573-.032,3.169-.08,6.321-.127,9.49-.016.908,0,1.815,0,2.8.7-.064,1.337-.127,1.974-.191,1.146-.111,2.293-.239,3.439-.318.462-.032.621-.207.637-.7.159-4.06.334-8.1.51-12.165.016-.334.127-.43.462-.446,2.627-.1,5.254-.175,7.882-.318,1.783-.1,3.567-.271,5.35-.4.3-.016.462-.111.382-.446a2.357,2.357,0,0,1,0-.478c.955-.111,1.895-.223,2.85-.318l8.1-.812c2.6-.255,5.191-.51,7.8-.764,2.532-.255,5.063-.51,7.579-.764.255-.032.557-.159.669.239.016.064.239.1.366.08,4.809-.525,9.633-1.083,14.442-1.592,2.15-.223,4.3-.462,6.465-.573A10.94,10.94,0,0,1,96.9,108.01c1.146,1.162,2.15,2.452,3.232,3.678.1.111.191.223.382.462.032-.3.064-.462.064-.637.08-2.564.159-5.127.239-7.675.032-.955.048-.939.971-1.035,2.516-.239,5.031-.494,7.643-.748-.876,0-1.64-.032-2.4,0-2.436.1-4.872.239-7.324.3-3.726.1-7.468.175-11.193.207-3.63.048-7.261.08-10.891.048-3.933-.032-7.882-.1-11.814-.223-3.694-.111-7.388-.271-11.082-.51a132.629,132.629,0,0,1-16.225-1.927,50.091,50.091,0,0,1-13.566-4.3,20.242,20.242,0,0,1-8.932-8.359,28.321,28.321,0,0,1-2.134-6.273,9.35,9.35,0,0,1-.318-3.121,1.08,1.08,0,0,0-.032-.51,11.454,11.454,0,0,1-.748-4.188c-.143-2.627-.271-5.254-.3-7.882a43.411,43.411,0,0,1,.892-9.729,7.166,7.166,0,0,1,5.971-5.923,2.049,2.049,0,0,0,.3-.064c.032,0,.048-.048.127-.111-.159-.159-.3-.318-.446-.478a7.8,7.8,0,0,1-1.417-8.359,66.169,66.169,0,0,1,20.938-26.3A71.266,71.266,0,0,1,67.072,1.489,76.1,76.1,0,0,1,78.138-.024a74.827,74.827,0,0,1,10.35.048,71.963,71.963,0,0,1,34.886,11.719,66.724,66.724,0,0,1,29.488,46.923,61.307,61.307,0,0,1,.3,10.4,62.757,62.757,0,0,1-1.083,10.652,16.836,16.836,0,0,1-.924,2.548,2.622,2.622,0,0,0-.239.812,7.99,7.99,0,0,1-.955,3.662,19.73,19.73,0,0,1-8.168,8.3,38.348,38.348,0,0,1-10.35,3.885c-2.691.621-5.43,1.067-8.136,1.592l-.143.048C123.231,100.638,123.247,100.669,123.247,100.717ZM43.077,51.326a.357.357,0,0,1-.016.159c-.764,1.927-1.513,3.869-2.293,5.8a.529.529,0,0,1-.446.239,78.023,78.023,0,0,1-11.671-1.974c-2.165-.557-4.283-1.242-6.4-1.943a3.881,3.881,0,0,0-5.175,2.85,41.741,41.741,0,0,0-.78,6.91,97.307,97.307,0,0,0,.35,10.557A6.064,6.064,0,0,0,17.2,76.2a2.156,2.156,0,0,1,.271,1.911c-.334.939.127,1.847.3,2.771,1,5.4,4.2,9.06,9,11.48a38.066,38.066,0,0,0,7.133,2.659,97.1,97.1,0,0,0,17.228,2.755c3.646.3,7.308.525,10.955.7q5.087.239,10.206.3c4.458.064,8.9.064,13.359.048,2.834,0,5.668-.032,8.518-.1,3.312-.08,6.64-.127,9.952-.318,4.649-.271,9.3-.637,13.932-1.035a81.071,81.071,0,0,0,11.082-1.751,40.5,40.5,0,0,0,10.19-3.535,16.809,16.809,0,0,0,7.1-6.64,4.625,4.625,0,0,0,.605-3.662.742.742,0,0,1,.223-.557,3.781,3.781,0,0,0,1.178-2.245c.318-2.818.748-5.621.892-8.455a58.23,58.23,0,0,0-.478-13.311,63.265,63.265,0,0,0-35.555-46.8A69.033,69.033,0,0,0,86.418,3.734,69.925,69.925,0,0,0,65.607,5.772,66.259,66.259,0,0,0,31.024,26.949,59.461,59.461,0,0,0,21.439,42.17a3.94,3.94,0,0,0,2.468,5.461q.812.263,1.624.478a93.234,93.234,0,0,0,14.187,2.834C40.832,51.071,41.947,51.2,43.077,51.326ZM26.518,152.083c.414-.048.732-.064,1.051-.1l9.792-.955c.35-.032.462-.175.462-.525,0-1.29.032-2.579.064-3.869.064-2.739.111-5.461.223-8.2.191-4.713.4-9.41.653-14.107.143-2.818.382-5.621.589-8.439.064-.844.127-1.7.191-2.6-.223,0-.4-.016-.557,0-3.137.175-6.273.366-9.426.525-.366.016-.462.175-.462.51-.1,2.739-.191,5.461-.3,8.2-.048,1.274-.143,2.548-.207,3.805-.016.3-.1.494-.478.525-.764.064-1.529.191-2.293.287-1.7.175-3.423.318-5.127.525-1.322.159-2.643.4-3.965.605-.334.048-.589.064-.589-.43.048-3.853.064-7.706.1-11.56v-1.035c-.3.016-.525.032-.748.048-3.391.334-6.767.685-10.159,1-.4.032-.462.223-.462.557-.016,1.608-.032,3.232-.08,4.84-.1,4.57-.175,9.139-.318,13.709-.08,2.8-.223,5.6-.382,8.391-.191,3.471-.446,6.926-.669,10.4-.016.159,0,.318,0,.494.143.016.207.032.271.032,3.344-.318,6.672-.637,10.015-.939.287-.032.414-.143.43-.446.191-2.484.4-4.968.589-7.452.143-1.831.3-3.662.43-5.493.032-.494.239-.669.748-.748,3.009-.43,6-.908,9.012-1.369.892-.127,1.8-.223,2.755-.334C27.282,142.689,26.9,147.338,26.518,152.083ZM97.6,143.931a1.082,1.082,0,0,0-.064-.207,5.767,5.767,0,0,0-.35-.51,38.589,38.589,0,0,1-5.668-11.4A.713.713,0,0,1,91.72,131c.669-.637,1.322-1.306,1.958-1.974a30.845,30.845,0,0,0,5.031-6.449,6.491,6.491,0,0,0,.127-6.719c-.048-.08-.08-.159-.127-.223a22.039,22.039,0,0,0-4.028-5.207,8.428,8.428,0,0,0-6.91-2.579c-1.974.159-3.933.4-5.891.605-3.821.414-7.659.844-11.48,1.226-.557.048-.669.255-.653.764.08,2.786.175,5.573.207,8.359.064,6.21.08,12.419-.366,18.613-.223,3.073-.4,6.146-.605,9.2-.032.414,0,.844,0,1.274a1.485,1.485,0,0,0,.223.032c3.009-.3,6.019-.589,9.028-.924a.611.611,0,0,0,.35-.43c.239-2.962.446-5.923.653-8.9.064-.86.143-1.736.223-2.659a8.6,8.6,0,0,0,.908,0c.573-.1.828.175,1.067.685a41.268,41.268,0,0,0,6.672,10.381.725.725,0,0,0,.844.255c2.484-.7,4.968-1.369,7.452-2.054C96.8,144.154,97.2,144.042,97.6,143.931ZM129.2,113.614c0-1.146.016-2.213,0-3.3-.048-2.134-.143-4.267-.207-6.385-.016-.334-.127-.446-.462-.414-1.178.127-2.357.223-3.535.35q-4.92.5-9.84.987l-10.668,1.051c-.334.032-.43.175-.43.494-.127,3.407-.255,6.8-.382,10.206-.08,2.022-.143,4.06-.271,6.082q-.358,5.66-.78,11.321c-.207,2.691-.462,5.382-.685,8.057-.08.844-.143,1.7-.223,2.627.462-.048.844-.064,1.226-.111,3.407-.334,6.8-.685,10.206-1,.446-.048.541-.239.541-.621.016-1.067.064-2.134.08-3.2.08-3.073.175-6.146.255-9.235,0-.3,0-.51.414-.525,3.885-.143,7.77-.318,11.639-.494,1.131-.048,1.115-.048,1-1.178-.3-2.786-.589-5.573-.892-8.359-.08-.717-.064-.717-.764-.637q-5.039.621-10.079,1.258c-.446.064-.589,0-.557-.478.127-1.99.239-3.981.35-5.971.016-.35.207-.43.494-.446.812-.064,1.608-.159,2.42-.175,2.325-.048,4.633-.08,6.958-.08C126.431,113.439,127.832,113.551,129.2,113.614ZM53.745,125.636c.159-1.688.3-3.344.446-5,.032-.334.223-.4.494-.462a41.652,41.652,0,0,1,10.7-1.019c.159,0,.334-.016.557-.032a5.885,5.885,0,0,0-.048-.589c-.51-2.739-1.019-5.461-1.529-8.2-.064-.318-.175-.446-.51-.414-.732.08-1.465.143-2.2.223-2.6.271-5.191.541-7.8.8l-8.821.86c-.478.048-.971.127-1.4.175C44.3,125,43.252,137.832,41.6,150.7c.876-.1,1.767-.223,2.659-.318,2.739-.271,5.461-.605,8.216-.764s5.525-.175,8.3-.223a.551.551,0,0,0,.621-.446q1.337-4.323,2.707-8.662c.048-.159.08-.318.127-.557-3.694.111-7.324.207-10.955.318-.016-.159-.032-.223-.032-.287.175-1.672.35-3.344.541-5.016a.552.552,0,0,1,.366-.334c1.449-.223,2.882-.494,4.331-.589,1.56-.1,3.121-.016,4.681,0,.318,0,.446-.064.51-.4.462-2.516.955-5.031,1.417-7.547.1-.494.175-.987.287-1.624A42.388,42.388,0,0,1,53.745,125.636Zm80.52,15.747a1.713,1.713,0,0,0,.35.032c1.385-.143,2.771-.271,4.156-.414,2.293-.223,4.586-.478,6.879-.669a.925.925,0,0,0,.923-.7c1.958-5.143,3.949-10.254,5.891-15.4q4.347-11.584,8.646-23.167a4.309,4.309,0,0,0,.159-.525h-.653c-2.611.127-5.207.287-7.818.366a1.1,1.1,0,0,0-1.131.86c-1.1,2.723-2.245,5.43-3.391,8.136-.525,1.242-1.051,2.5-1.608,3.821l-.223-.557c-1.162-3.455-2.325-6.894-3.455-10.366-.159-.51-.366-.669-.908-.605-2.946.4-5.891.748-8.837,1.13-.494.064-.987.175-1.544.271.1.255.159.43.223.605q4.371,10.748,8.71,21.479a1.23,1.23,0,0,1-.016.86c-1.767,4.156-3.567,8.312-5.35,12.451C134.934,139.775,134.615,140.539,134.265,141.383Zm-35.6-1.815c.064-.016.111-.032.175-.048.4-4.076.7-8.152.876-12.244a.409.409,0,0,0-.223.127c-1.337,1.5-2.659,3.009-4.012,4.49a.671.671,0,0,0-.175.812c.621,1.4,1.194,2.818,1.847,4.188C97.6,137.816,98.153,138.676,98.662,139.568Z" transform="translate(0)"/><path class="b" d="M130.076,71.449c-1.131-.127-2.245-.255-3.36-.4a93.622,93.622,0,0,1-14.187-2.834c-.541-.159-1.1-.3-1.624-.478a3.94,3.94,0,0,1-2.468-5.461,60.341,60.341,0,0,1,9.585-15.222,66.36,66.36,0,0,1,34.584-21.177,69.926,69.926,0,0,1,20.811-2.038,68.48,68.48,0,0,1,26.877,6.687,63.334,63.334,0,0,1,35.539,46.812,58.227,58.227,0,0,1,.478,13.311c-.159,2.818-.573,5.637-.892,8.455a3.781,3.781,0,0,1-1.178,2.245.72.72,0,0,0-.223.557,4.646,4.646,0,0,1-.605,3.662,16.809,16.809,0,0,1-7.1,6.64,40.5,40.5,0,0,1-10.19,3.535,81.854,81.854,0,0,1-11.082,1.751q-6.95.6-13.932,1.035c-3.312.191-6.624.255-9.952.318-2.834.064-5.668.1-8.519.1-4.458,0-8.9,0-13.359-.048q-5.111-.072-10.206-.3c-3.662-.175-7.308-.4-10.955-.7a97.1,97.1,0,0,1-17.228-2.755,38.066,38.066,0,0,1-7.133-2.659c-4.793-2.42-7.993-6.082-9-11.48-.175-.924-.637-1.831-.3-2.771a2.055,2.055,0,0,0-.271-1.911,6.064,6.064,0,0,1-.557-2.277,101.672,101.672,0,0,1-.35-10.557,41.936,41.936,0,0,1,.78-6.91,3.881,3.881,0,0,1,5.175-2.85c2.118.685,4.251,1.385,6.4,1.943a76.364,76.364,0,0,0,11.671,1.974.529.529,0,0,0,.446-.239c.78-1.927,1.529-3.853,2.293-5.8C130.076,71.577,130.076,71.545,130.076,71.449Zm82.717,6.465a1.1,1.1,0,0,1-.239.08c-1.306-.111-2.6-.255-3.9-.318a.864.864,0,0,1-.892-.685,38.1,38.1,0,0,0-9.983-15.4c-9.6-8.933-21.018-12.563-33.947-10.652-13.056,1.911-22.753,8.917-29.186,20.428a38.5,38.5,0,0,0-3.837,10.143c-.08.382-.239.51-.621.462-.685-.08-1.369-.111-2.054-.175a83.842,83.842,0,0,1-17.929-3.487c-.732-.239-1.449-.494-2.261-.764-.175,1.306-.446,2.548-.525,3.805a84.194,84.194,0,0,0,.223,12.515.738.738,0,0,0,.653.78,135.714,135.714,0,0,0,22.753,3.487,149.932,149.932,0,0,0,15.827.287,135.62,135.62,0,0,0,15.668-1.337c6.783-1,13.582-1.656,20.413-2.086,4.665-.287,9.346-.51,14.012-.589,4.124-.08,8.248-.016,12.372.111a76.823,76.823,0,0,1,16.91,2.42c1.72.446,3.423.971,5.175,1.481a3.355,3.355,0,0,0,.1-.382c.255-2.309.605-4.6.748-6.91a55.594,55.594,0,0,0-.732-14.887,58.159,58.159,0,0,0-17.451-31.431c-10.525-9.856-23.1-15.174-37.37-16.687a67.311,67.311,0,0,0-15.907.255A63.746,63.746,0,0,0,139.375,35.1a59.55,59.55,0,0,0-26.463,27.02c-.287.573-.541,1.162-.844,1.831,1.895.478,3.678.987,5.477,1.4a91.135,91.135,0,0,0,13.6,2.118.759.759,0,0,0,.812-.43,45.657,45.657,0,0,1,7.452-9.139,43.84,43.84,0,0,1,41.255-10.764c14.282,3.726,24.393,12.515,30.38,26C211.711,74.7,212.2,76.306,212.793,77.914ZM108.342,99.123c.382,1.258.637,2.436,1.067,3.551a11.413,11.413,0,0,0,5.286,5.716,32.858,32.858,0,0,0,9.315,3.391,110.15,110.15,0,0,0,15.97,2.245c7.993.637,16,.844,24.011.924,4.172.032,8.359.032,12.531-.032,4.426-.064,8.869-.175,13.3-.334,5.764-.207,11.5-.605,17.212-1.353a67.225,67.225,0,0,0,13.136-2.786,20.852,20.852,0,0,0,7.563-4.108,9.925,9.925,0,0,0,2.4-3.232c-.287-.111-.525-.207-.764-.287a82.237,82.237,0,0,0-25.683-4.172c-3.2-.048-6.4.1-9.585.271-3.9.207-7.786.51-11.671.86-4.012.366-7.993.876-12.006,1.274-5.525.557-11.05,1.146-16.575,1.576-4.156.318-8.343.51-12.515.605a121.438,121.438,0,0,1-17.34-.892,89.386,89.386,0,0,1-13.407-2.6C109.887,99.553,109.186,99.362,108.342,99.123Z" transform="translate(-86.999 -20.124)"/><path class="b" d="M45.482,751.334c.382-4.745.748-9.394,1.13-14.123-.955.111-1.863.207-2.755.334-3.009.446-6,.94-9.012,1.37-.51.08-.717.239-.748.748-.127,1.831-.287,3.662-.43,5.493-.191,2.484-.4,4.968-.589,7.452-.016.3-.143.414-.43.446-3.344.3-6.672.621-10.015.939-.064,0-.127-.016-.271-.032,0-.159-.016-.334,0-.494.223-3.471.478-6.926.669-10.4.159-2.8.3-5.6.382-8.391.127-4.57.223-9.139.318-13.709.032-1.608.064-3.232.08-4.84,0-.334.064-.526.462-.557,3.391-.318,6.767-.669,10.159-1,.223-.016.446-.032.748-.048v1.035c-.032,3.853-.048,7.706-.1,11.56,0,.494.255.478.589.43,1.322-.207,2.643-.446,3.965-.605,1.7-.207,3.423-.35,5.127-.525.764-.08,1.529-.223,2.293-.287.382-.032.446-.223.478-.525.064-1.274.159-2.532.207-3.806.111-2.739.207-5.461.3-8.2.016-.334.1-.494.462-.51,3.137-.159,6.273-.35,9.426-.525.159-.016.334,0,.557,0-.064.891-.127,1.751-.191,2.6-.191,2.818-.43,5.621-.589,8.439-.255,4.7-.462,9.41-.653,14.107-.111,2.739-.159,5.461-.223,8.2-.032,1.29-.048,2.579-.064,3.869,0,.35-.127.478-.462.526l-9.792.955C46.214,751.27,45.9,751.3,45.482,751.334Z" transform="translate(-18.964 -599.251)"/><path class="b" d="M462.959,714.119c-.4.112-.8.223-1.178.335-2.484.685-4.968,1.353-7.452,2.054a.7.7,0,0,1-.844-.255,41.14,41.14,0,0,1-6.672-10.381c-.223-.51-.494-.78-1.067-.685a5.738,5.738,0,0,1-.908,0c-.08.924-.159,1.783-.223,2.659-.223,2.962-.43,5.939-.653,8.9-.016.159-.207.414-.35.43q-4.514.478-9.028.923a1.475,1.475,0,0,1-.223-.032c0-.43-.016-.86,0-1.274.191-3.073.382-6.146.605-9.2.446-6.194.43-12.4.366-18.613-.032-2.786-.112-5.573-.207-8.359-.016-.51.1-.7.653-.764,3.837-.382,7.659-.812,11.48-1.226,1.958-.207,3.933-.43,5.891-.605a8.428,8.428,0,0,1,6.91,2.579,21.724,21.724,0,0,1,4.028,5.207c.048.08.08.159.127.223a6.491,6.491,0,0,1-.127,6.719,31.383,31.383,0,0,1-5.032,6.449c-.637.669-1.29,1.338-1.958,1.974a.684.684,0,0,0-.207.812,38.21,38.21,0,0,0,5.668,11.4c.127.175.239.334.35.51A.5.5,0,0,0,462.959,714.119Zm-17.929-13.677c.048.048.08.1.127.143,1.178-.828,2.4-1.592,3.519-2.5a11.791,11.791,0,0,0,3.662-4.522,3.071,3.071,0,0,0-1.178-4.092,9.64,9.64,0,0,0-4-1.56c-.685-.112-1.369-.175-2.118-.271C445.031,691.987,445.031,696.206,445.031,700.442Z" transform="translate(-365.364 -570.188)"/><path class="b" d="M667.466,661.167c-1.369-.064-2.771-.159-4.172-.175-2.325-.016-4.633.032-6.958.08-.812.016-1.608.111-2.42.175-.287.016-.478.1-.494.446-.1,1.99-.223,3.981-.35,5.971-.032.462.111.525.557.478q5.04-.645,10.079-1.258c.7-.08.685-.08.764.637.287,2.786.573,5.573.892,8.359.127,1.13.143,1.13-1,1.178-3.885.159-7.754.334-11.639.494-.414.016-.414.239-.414.525-.08,3.073-.175,6.146-.255,9.235-.032,1.067-.08,2.134-.08,3.2,0,.382-.111.573-.541.621-3.408.318-6.8.669-10.206,1-.382.032-.78.064-1.226.111.08-.924.143-1.783.223-2.627.223-2.691.478-5.366.685-8.057q.43-5.661.78-11.321c.127-2.022.191-4.06.271-6.083.127-3.407.271-6.8.382-10.206.016-.319.1-.462.43-.494,3.551-.334,7.117-.7,10.668-1.051q4.92-.5,9.84-.987c1.178-.111,2.356-.223,3.535-.35.334-.032.462.08.462.414.064,2.134.143,4.267.207,6.385C667.482,658.938,667.466,660.021,667.466,661.167Z" transform="translate(-538.265 -547.553)"/><path class="b" d="M274.449,707.075a44.3,44.3,0,0,0,11.623-1.369c-.111.637-.191,1.13-.287,1.624-.478,2.516-.955,5.031-1.417,7.547-.064.334-.191.4-.51.4-1.56-.032-3.137-.111-4.681,0-1.449.1-2.9.366-4.331.589a.519.519,0,0,0-.366.334c-.207,1.672-.366,3.344-.541,5.016,0,.064.016.127.032.287,3.63-.111,7.261-.207,10.955-.319-.048.239-.08.4-.127.557q-1.361,4.323-2.707,8.662a.539.539,0,0,1-.621.446c-2.77.064-5.541.064-8.3.223-2.739.159-5.477.494-8.216.764-.892.1-1.783.207-2.659.318,1.656-12.865,2.707-25.715,2.038-38.723.43-.048.908-.127,1.4-.175l8.821-.86c2.6-.255,5.191-.525,7.8-.8.732-.079,1.465-.127,2.2-.223.334-.032.462.1.51.414q.764,4.108,1.529,8.2a5.9,5.9,0,0,1,.048.589c-.223.016-.382.032-.557.032a41.711,41.711,0,0,0-10.7,1.019c-.287.064-.478.127-.494.462C274.751,703.731,274.608,705.387,274.449,707.075Z" transform="translate(-220.704 -581.439)"/><path class="b" d="M830.848,673.2c.366-.844.685-1.608,1.019-2.388,1.783-4.156,3.583-8.3,5.35-12.452a1.229,1.229,0,0,0,.016-.86q-4.347-10.748-8.71-21.479c-.064-.175-.127-.35-.223-.605.541-.1,1.035-.207,1.545-.271,2.946-.382,5.891-.748,8.837-1.13.525-.064.733.08.908.6,1.13,3.455,2.293,6.91,3.455,10.365.048.159.127.318.223.557.557-1.322,1.083-2.579,1.608-3.821,1.13-2.707,2.277-5.414,3.391-8.136a1.118,1.118,0,0,1,1.131-.86c2.611-.08,5.223-.239,7.818-.366.191-.016.366,0,.653,0a4.3,4.3,0,0,1-.159.526q-4.323,11.584-8.646,23.167c-1.943,5.143-3.933,10.27-5.891,15.4a.942.942,0,0,1-.923.7c-2.293.191-4.586.446-6.879.669-1.385.143-2.771.287-4.156.414A1.684,1.684,0,0,1,830.848,673.2Z" transform="translate(-696.583 -531.82)"/><path class="c" d="M234.045,99.2c-.589-1.608-1.1-3.216-1.767-4.745-5.987-13.5-16.1-22.275-30.38-26A43.84,43.84,0,0,0,160.642,79.22a46.211,46.211,0,0,0-7.452,9.139.759.759,0,0,1-.812.43,93.581,93.581,0,0,1-13.6-2.118c-1.8-.414-3.6-.908-5.477-1.4.3-.669.573-1.258.844-1.831A59.466,59.466,0,0,1,160.627,56.4a63.859,63.859,0,0,1,21.432-6.719,67.3,67.3,0,0,1,15.906-.255c14.267,1.5,26.845,6.831,37.37,16.687a58.208,58.208,0,0,1,17.467,31.4,55.59,55.59,0,0,1,.732,14.887c-.143,2.309-.494,4.618-.748,6.91a3.343,3.343,0,0,1-.1.382c-1.736-.494-3.439-1.035-5.175-1.481a76.824,76.824,0,0,0-16.91-2.42c-4.124-.127-8.248-.191-12.372-.111-4.681.1-9.347.3-14.012.589-6.831.43-13.646,1.083-20.413,2.086a139.241,139.241,0,0,1-15.668,1.337,149.925,149.925,0,0,1-15.827-.287,135.715,135.715,0,0,1-22.753-3.487.717.717,0,0,1-.653-.78,84.228,84.228,0,0,1-.223-12.515c.08-1.258.334-2.516.525-3.805.812.271,1.529.525,2.261.764a85.028,85.028,0,0,0,17.929,3.487c.685.064,1.369.1,2.054.175.382.048.541-.08.621-.462a38.506,38.506,0,0,1,3.837-10.143c6.433-11.512,16.129-18.5,29.186-20.428,12.945-1.895,24.345,1.72,33.947,10.652a38.1,38.1,0,0,1,9.983,15.4.836.836,0,0,0,.892.685c1.306.064,2.611.207,3.9.318C233.838,99.282,233.87,99.266,234.045,99.2Zm-25.237-.08a2.381,2.381,0,0,0-.239-.414,37.833,37.833,0,0,0-2.755-3.2,21.006,21.006,0,0,0-20.142-5.3,19.044,19.044,0,0,0-14.2,12.276c-.1.239-.159.478-.271.764.334,0,.605.016.876,0,5.939-.35,11.83-1.226,17.722-1.974,5.525-.7,11.066-1.306,16.591-1.943C207.184,99.251,207.964,99.187,208.808,99.123Z" transform="translate(-108.251 -41.412)"/><path class="c" d="M135.1,494.613c.844.239,1.545.446,2.261.637a91.029,91.029,0,0,0,13.407,2.6,119.153,119.153,0,0,0,17.34.892c4.172-.1,8.359-.287,12.515-.605,5.541-.43,11.05-1.019,16.575-1.576,4-.4,7.993-.908,12.006-1.274,3.885-.35,7.786-.637,11.671-.86,3.184-.175,6.385-.318,9.585-.271a82.487,82.487,0,0,1,25.7,4.172c.239.08.478.175.764.287a10.155,10.155,0,0,1-2.4,3.232,20.617,20.617,0,0,1-7.563,4.108,67.469,67.469,0,0,1-13.136,2.786c-5.716.748-11.464,1.146-17.212,1.353-4.426.159-8.869.271-13.3.334-4.172.064-8.359.064-12.531.032-8.009-.08-16.018-.287-24.011-.924a110.158,110.158,0,0,1-15.97-2.245,32.86,32.86,0,0,1-9.315-3.391,11.477,11.477,0,0,1-5.286-5.716C135.737,497.033,135.466,495.871,135.1,494.613Z" transform="translate(-113.757 -415.614)"/><path class="a" d="M501.4,751.486V738.7c.748.1,1.433.143,2.118.271a9.553,9.553,0,0,1,4,1.56,3.06,3.06,0,0,1,1.178,4.092,11.789,11.789,0,0,1-3.662,4.522c-1.115.892-2.341,1.672-3.519,2.5A.454.454,0,0,0,501.4,751.486Zm3.312-6.863c.048.016.08.032.127.048l.669-1c.207-.3.127-.509-.191-.653-.175-.08-.366-.127-.605-.207Z" transform="translate(-421.733 -621.232)"/><path class="b" d="M434.093,312.8c-.844.08-1.624.127-2.4.207-5.525.637-11.066,1.242-16.591,1.943-5.891.748-11.783,1.624-17.722,1.974-.271.016-.541,0-.876,0,.1-.287.175-.525.271-.764a19.074,19.074,0,0,1,14.2-12.276c7.6-1.751,14.394-.064,20.142,5.3a35.508,35.508,0,0,1,2.755,3.2A2.315,2.315,0,0,1,434.093,312.8Zm-9.06-3.185a17.437,17.437,0,0,0-12.833-1.895c-3.232.716-7.515,3.121-8.28,4.649C410.942,311.451,417.948,310.544,425.033,309.62Z" transform="translate(-333.536 -255.094)"/><path class="b" d="M522.2,766.315V764.5c.239.08.43.127.6.207.318.143.4.35.191.653l-.669,1A1.1,1.1,0,0,1,522.2,766.315Z" transform="translate(-439.221 -642.924)"/><path class="a" d="M464.129,330.933c-7.086.923-14.091,1.847-21.129,2.755.78-1.529,5.063-3.933,8.28-4.649A17.466,17.466,0,0,1,464.129,330.933Z" transform="translate(-372.632 -276.407)"/><g transform="translate(154.598 135.03)"><path class="b" d="M976.441,856.482a3.041,3.041,0,1,1,3.041-3.041A3.051,3.051,0,0,1,976.441,856.482Z" transform="translate(-973.177 -850.177)"/><path class="a" d="M975.264,849.446a2.818,2.818,0,1,1-2.818,2.818,2.824,2.824,0,0,1,2.818-2.818m0-.446a3.264,3.264,0,1,0,3.264,3.264A3.269,3.269,0,0,0,975.264,849Z" transform="translate(-972 -849)"/><g transform="translate(1.927 1.497)"><path class="a" d="M984.1,861.935V858.4h1.529a1.232,1.232,0,0,1,.844.287.961.961,0,0,1,.318.748,1,1,0,0,1-.143.525.886.886,0,0,1-.43.334,1.146,1.146,0,0,1,.3.318.826.826,0,0,1,.111.43l.016.876H986.2l-.016-.876a.5.5,0,0,0-.223-.414.858.858,0,0,0-.494-.143h-.907v1.449Zm.446-1.847h1.083a.76.76,0,0,0,.51-.175.649.649,0,0,0,.191-.478.59.59,0,0,0-.191-.462.76.76,0,0,0-.51-.175h-1.083Z" transform="translate(-984.1 -858.4)"/></g></g></g></svg>